<svg width="517" height="487" viewBox="0 0 517 487" fill="none" xmlns="http://www.w3.org/2000/svg">
<path d="M512.283 193.876C407.877 -25.6274 144.781 -334.785 -72.3562 184.614C20.6564 407.341 267.802 721.012 512.283 193.876Z" fill="#4D0404" fill-opacity="0.03" stroke="black" stroke-width="2"/>
<circle cx="217.751" cy="190.775" r="269.867" fill="#4D0404" fill-opacity="0.03"/>
<line x1="218.751" y1="-79.0928" x2="218.751" y2="460.642" stroke="black" stroke-width="2"/>
<line x1="-52.116" y1="189.775" x2="487.619" y2="189.775" stroke="black" stroke-width="2"/>
<path d="M217.751 -77.6419C186.799 21.2611 143.465 266.947 217.751 458.466C249.188 369.961 293.198 138.832 217.751 -77.6419Z" fill="#4D0404" fill-opacity="0.03" stroke="black" stroke-width="2"/>
<path d="M217.83 -79.0928C155.362 19.944 67.9075 265.962 217.83 457.74C281.274 369.115 370.095 137.674 217.83 -79.0928Z" fill="#4D0404" fill-opacity="0.03" stroke="black" stroke-width="2"/>
<path d="M216.165 -76.191C133.056 22.8458 16.7033 268.864 216.165 460.642C300.573 372.017 418.744 140.576 216.165 -76.191Z" fill="#4D0404" fill-opacity="0.03" stroke="black" stroke-width="2"/>
<path d="M218.1 -76.191C111.633 22.8458 -37.4202 268.864 218.1 460.642C326.23 372.017 477.613 140.576 218.1 -76.191Z" fill="#4D0404" fill-opacity="0.03" stroke="black" stroke-width="2"/>
<path d="M217.673 -100.856C-0.149666 7.01358 -305.101 274.974 217.673 483.856C438.898 387.327 748.615 135.244 217.673 -100.856Z" fill="#4D0404" fill-opacity="0.03" stroke="black" stroke-width="2"/>
<path d="M215.659 -76.191C13.5898 22.8458 -269.308 268.864 215.659 460.642C420.886 372.017 708.204 140.576 215.659 -76.191Z" fill="#4D0404" fill-opacity="0.03" stroke="black" stroke-width="2"/>
<path d="M214.613 -76.191C51.654 22.8458 -176.489 268.864 214.613 460.642C380.119 372.017 611.827 140.576 214.613 -76.191Z" fill="#4D0404" fill-opacity="0.03" stroke="black" stroke-width="2"/>
<path d="M216.39 -79.0928C84.9366 20.4794 -99.0988 267.827 216.39 460.642C349.898 371.538 536.809 138.846 216.39 -79.0928Z" fill="#4D0404" fill-opacity="0.03" stroke="black" stroke-width="2"/>
<path d="M489.07 193.587C390.67 161.072 145.702 113.852 -46.9699 185.095C41.0259 217.929 271.428 265.596 489.07 193.587Z" fill="#4D0404" fill-opacity="0.03" stroke="black" stroke-width="2"/>
<path d="M490.52 193.689C392.485 129.66 147.883 38.3193 -46.2457 185.185C41.3629 250.025 271.368 342.501 490.52 193.689Z" fill="#4D0404" fill-opacity="0.03" stroke="black" stroke-width="2"/>
<path d="M487.645 191.979C389.937 107.311 145.793 -12.9245 -49.1208 183.475C38.1557 269.276 267.696 391.098 487.645 191.979Z" fill="#4D0404" fill-opacity="0.03" stroke="black" stroke-width="2"/>
<path d="M487.614 193.913C390.276 85.8907 146.65 -67.0411 -49.1514 185.409C37.7493 294.93 266.763 449.959 487.614 193.913Z" fill="#4D0404" fill-opacity="0.03" stroke="black" stroke-width="2"/>
<path d="M487.653 191.473C391.829 -12.1405 150.323 -298.899 -49.1127 182.969C36.2499 389.574 263.111 680.522 487.653 191.473Z" fill="#4D0404" fill-opacity="0.03" stroke="black" stroke-width="2"/>
<path d="M487.669 190.427C391.226 25.919 148.853 -206.092 -49.0962 181.923C36.8956 348.812 264.637 584.156 487.669 190.427Z" fill="#4D0404" fill-opacity="0.03" stroke="black" stroke-width="2"/>
<path d="M490.543 192.25C393.065 59.2349 148.664 -128.696 -49.1244 183.7C37.8533 318.602 267.555 509.176 490.543 192.25Z" fill="#4D0404" fill-opacity="0.03" stroke="black" stroke-width="2"/>
</svg>
