<svg width="1912" height="1922" viewBox="0 0 1912 1922" fill="none" xmlns="http://www.w3.org/2000/svg">
<path d="M529.388 104.5C442.988 -6.3 549.721 -38.6667 613.888 -41H663.388C712.888 -41 714.888 104.5 745.388 55C775.888 5.5 846.388 53 902.388 146.5C958.388 240 695.888 283 663.388 189C630.888 95 785.388 200.5 681.888 104.5C578.388 8.5 637.388 243 529.388 104.5Z" fill="#8CBD88" fill-opacity="0.38"/>
<path d="M293.212 774.595C408.071 855.521 315.341 917.495 254.619 938.367L207.253 952.745C159.888 967.124 115.71 828.478 100.903 884.703C86.097 940.928 4.83919 915.955 -75.9056 842.753C-156.65 769.551 82.0411 652.155 140.444 732.662C198.848 813.169 20.3642 757.096 147.287 818.892C274.21 880.689 149.638 673.438 293.212 774.595Z" fill="#8CBD88" fill-opacity="0.38"/>
<path d="M1442.13 718.432C1324.41 522.394 1469.84 465.128 1557.27 461H1624.71C1692.16 461 1694.88 718.432 1736.44 630.852C1778 543.272 1874.06 627.314 1950.36 792.743C2026.66 958.172 1669 1034.25 1624.71 867.938C1580.43 701.624 1790.94 888.284 1649.92 718.432C1508.9 548.58 1589.29 963.479 1442.13 718.432Z" fill="#8CBD88" fill-opacity="0.38"/>
<path d="M-163.874 1789.48C-295.074 1560.68 -109.208 1606.48 0.125534 1657.98C11.1255 1622.14 26.5255 1529.78 0.125534 1446.98C-32.8745 1343.48 131.626 1263.98 337.626 1423.48C543.626 1582.98 300.126 1479.98 131.626 1657.98C-36.8745 1835.98 309.626 1535.98 253.626 1901.98C197.626 2267.98 126.626 1737.98 80.1255 1845.98C33.6255 1953.98 0.125519 2075.48 -163.874 1789.48Z" fill="#8CBD88" fill-opacity="0.38"/>
<circle cx="955.5" cy="1891.5" r="86.5" fill="#8CBD88" fill-opacity="0.38"/>
<circle cx="1311.5" cy="1769.5" r="86.5" fill="#8CBD88" fill-opacity="0.38"/>
<circle cx="1850.5" cy="65.5" r="168.5" fill="#8CBD88" fill-opacity="0.38"/>
</svg>
